<svg width="38" height="38" viewBox="0 0 38 38" fill="none" xmlns="http://www.w3.org/2000/svg">
<path d="M33.25 9.5H28.5C28.5 6.98044 27.4991 4.56408 25.7175 2.78249C23.9359 1.00089 21.5196 0 19 0C16.4804 0 14.0641 1.00089 12.2825 2.78249C10.5009 4.56408 9.5 6.98044 9.5 9.5H4.75C3.49022 9.5 2.28204 10.0004 1.39124 10.8912C0.500445 11.782 0 12.9902 0 14.25L0 30.0833C0.00251411 32.1822 0.837396 34.1944 2.32151 35.6785C3.80563 37.1626 5.81781 37.9975 7.91667 38H30.0833C32.1822 37.9975 34.1944 37.1626 35.6785 35.6785C37.1626 34.1944 37.9975 32.1822 38 30.0833V14.25C38 12.9902 37.4996 11.782 36.6088 10.8912C35.718 10.0004 34.5098 9.5 33.25 9.5ZM19 3.16667C20.6797 3.16667 22.2906 3.83393 23.4783 5.02166C24.6661 6.20939 25.3333 7.8203 25.3333 9.5H12.6667C12.6667 7.8203 13.3339 6.20939 14.5217 5.02166C15.7094 3.83393 17.3203 3.16667 19 3.16667V3.16667ZM34.8333 30.0833C34.8333 31.3431 34.3329 32.5513 33.4421 33.4421C32.5513 34.3329 31.3431 34.8333 30.0833 34.8333H7.91667C6.65689 34.8333 5.44871 34.3329 4.55791 33.4421C3.66711 32.5513 3.16667 31.3431 3.16667 30.0833V14.25C3.16667 13.8301 3.33348 13.4273 3.63041 13.1304C3.92735 12.8335 4.33007 12.6667 4.75 12.6667H9.5V15.8333C9.5 16.2533 9.66682 16.656 9.96375 16.9529C10.2607 17.2499 10.6634 17.4167 11.0833 17.4167C11.5033 17.4167 11.906 17.2499 12.2029 16.9529C12.4999 16.656 12.6667 16.2533 12.6667 15.8333V12.6667H25.3333V15.8333C25.3333 16.2533 25.5001 16.656 25.7971 16.9529C26.094 17.2499 26.4967 17.4167 26.9167 17.4167C27.3366 17.4167 27.7393 17.2499 28.0363 16.9529C28.3332 16.656 28.5 16.2533 28.5 15.8333V12.6667H33.25C33.6699 12.6667 34.0727 12.8335 34.3696 13.1304C34.6665 13.4273 34.8333 13.8301 34.8333 14.25V30.0833Z" fill="#264065"/>
</svg>
