<svg width="22" height="21" viewBox="0 0 22 21" fill="none" xmlns="http://www.w3.org/2000/svg">
<path d="M18.4268 3.0625C16.4512 1.09375 13.8171 0 11.0366 0C5.2561 0 0.57317 4.66667 0.57317 10.4271C0.57317 12.25 1.08537 14.0729 1.96341 15.6042L0.5 21L6.06098 19.5417C7.59756 20.3438 9.28049 20.7812 11.0366 20.7812C16.8171 20.7812 21.5 16.1146 21.5 10.3542C21.4268 7.65625 20.4024 5.03125 18.4268 3.0625ZM16.0854 14.1458C15.8659 14.7292 14.8415 15.3125 14.3293 15.3854C13.8902 15.4583 13.3049 15.4583 12.7195 15.3125C12.3537 15.1667 11.8415 15.0208 11.2561 14.7292C8.62195 13.6354 6.93903 11.0104 6.79268 10.7917C6.64634 10.6458 5.69512 9.40625 5.69512 8.09375C5.69512 6.78125 6.35366 6.19792 6.57317 5.90625C6.79268 5.61458 7.08536 5.61458 7.30488 5.61458C7.45122 5.61458 7.67073 5.61458 7.81707 5.61458C7.96341 5.61458 8.18293 5.54167 8.40244 6.05208C8.62195 6.5625 9.13414 7.875 9.20731 7.94792C9.28049 8.09375 9.28049 8.23958 9.20731 8.38542C9.13414 8.53125 9.06097 8.67708 8.91463 8.82292C8.76829 8.96875 8.62195 9.1875 8.54878 9.26042C8.40244 9.40625 8.2561 9.55208 8.40244 9.77083C8.54878 10.0625 9.06097 10.8646 9.86585 11.5937C10.8902 12.4687 11.6951 12.7604 11.9878 12.9063C12.2805 13.0521 12.4268 12.9792 12.5732 12.8333C12.7195 12.6875 13.2317 12.1042 13.378 11.8125C13.5244 11.5208 13.7439 11.5938 13.9634 11.6667C14.1829 11.7396 15.5 12.3958 15.7195 12.5417C16.0122 12.6875 16.1585 12.7604 16.2317 12.8333C16.3049 13.0521 16.3049 13.5625 16.0854 14.1458Z" fill="#264065"/>
</svg>
